<?xml version="1.0" encoding="UTF-8"?><svg id="a" xmlns="http://www.w3.org/2000/svg" viewBox="0 0 800 600.7"><path d="M427.05,285.8c-2.08-7.05-4.16-14.11-6.24-21.16l1.02-.35c1.99,4.47,3.95,8.95,5.97,13.4,6.31,13.89,14.07,26.79,25.35,37.34,12.33,11.54,26.95,18.02,43.61,20.11,3.01,.38,6.05,.62,8.55,.87-9.64-38.19-32.88-64.48-70.07-78.36,.26-.43,.52-.85,.79-1.28,5,1.19,10,2.37,15,3.56-4.18-4.63-8.43-9.34-12.67-14.04l.54-.58c4.46,3.42,8.9,6.88,13.39,10.26,10.61,7.97,21.52,15.47,34.51,19.08,16.9,4.7,33.74,3.39,50.5-.94,1.61-.42,3.2-.9,4.82-1.36-24.61-27.44-55.55-40.04-91.88-40.87,3.58-.44,7.16-1.32,10.73-1.25,9.84,.17,19.71,.34,29.49,1.3,6.21,.61,11.98-.51,17.81-1.98,15.67-3.96,28.83-11.97,39.06-24.59,.38-.46,.65-1.01,1.17-1.85-12.73-3.5-25.04-7.63-37.68-10.17-14.8-2.97-29.09,.59-42.53,7-7.14,3.41-13.9,7.64-20.82,11.51-1.07,.6-2.09,1.26-3.14,1.89l-.61-.68c3.45-3.47,6.9-6.95,10.36-10.44-4.42,.84-8.97,1.71-13.91,2.66,4.89,13.46,3.35,26.45-3.52,38.76-4.91,8.8-11.88,15.51-21.25,19.68-10.59,4.71-21.36,5.73-32.48,2.44-10.93-3.23-19.69-9.52-26.06-19.28-1.46,3.59-2.77,6.84-4.4,10.86,2.81-1.74,4.88-3.03,6.95-4.31l.48,.54c-2.71,2.85-5.49,5.65-8.12,8.57-1.68,1.86-3.48,3.73-4.67,5.9-6.56,11.93-24.88,33.23-37.57,42.25,2.98-6.33,5.96-12.66,8.9-18.88-3.72,1.25-7.71,2.47-11.59,3.98-.84,.33-1.61,1.63-1.85,2.62-1.79,7.29-3.42,14.61-5.14,21.91-.5,2.12-1.15,4.21-1.84,6.72,16.93-4.1,30.89-12.53,42.46-25.02,11.48-12.39,19.06-27.05,24.53-43.34,2,37.72-43.23,81.25-80.19,77.19,8.95-11.11,8.57-25.02,12.4-38.05-15.41,1.3-30.16-.4-45.07-6.27,13.67-7.44,21.35-19.98,31.32-31.16-20.63-1.07-35.72-11.77-49.38-25.79,3.1-.88,6.24-1.34,8.99-2.63,6.2-2.92,12.27-6.15,18.29-9.43,6.83-3.72,13.55-7.64,20.41-11.53-16.63-8.45-29.35-21.7-39.77-37.77,19.42,5.31,39.2,.65,59.34,3.11-10.58-10.59-17.36-22.77-20.86-36.65-1.57-6.2-2.3-12.6-3-19.13,10,6.97,20.72,11.58,32.51,14.8-2.97-17.57-.67-34.24,3.83-50.73,10.93,8.17,21.78,15.9,32.19,24.2,6.75,5.39,11.92,12.31,15.69,20.17,.17,.35,.46,.65,1.11,1.54-2.37-25.56,6.9-46.89,20.25-66.69,5.69,10.64,11.38,21.27,17.28,32.31,7.43-9,14.36-17.38,21.19-25.65,6.73,11.94,15.98,40.07,7.97,70.29,1.86-2.49,3.12-4.27,4.48-5.98,7.46-9.44,16.49-17.03,27.05-22.77,9.73-5.29,19.49-10.5,29.65-15.97-.41,20-4.52,38.71-14.61,56.59,19.62-9.38,41.27-9.13,60.8-17.05-8.86,17.94-19.12,34.68-34.45,47.9,4.96,.7,9.92,.94,14.64,2.15,8.07,2.07,15.92,4.99,23.98,7.1,7.32,1.92,14.8,3.26,22.19,4.85-13.11,20.75-31.26,34.89-57.4,37.79,21.39,7.98,34.97,26.13,52.86,39.72-22.52,9.84-45.35,14.29-70.09,9.37,7.23,8.2,12.56,16.91,16.45,26.48,1.59,3.91,2.78,8,4.47,11.87,3.11,7.13,6.45,14.17,9.75,21.36-24.55,1.84-47.91-2.45-68.14-19.92-2.37,19.63-9.71,36.91-19.89,52.27-5.51-9.47-11-19.09-16.68-28.6-5.62-9.41-9.93-19.34-13.04-30.04-.11,1.18-.56,2.43-.29,3.52,4.69,18.97,5.78,38.27,5.38,57.71-.43,21.13-3.68,41.95-6.52,62.84-4.32,31.79-3.89,63.39,6,94.33,1.22,3.81,2.58,7.56,4.07,11.9-2.48,0-4.65,.14-6.79-.09-.66-.07-1.49-1.05-1.77-1.8-5.1-13.63-8.25-27.74-10.1-42.15-2.12-16.48-1.97-33.04-.5-49.53,1.04-11.69,3.11-23.28,4.67-34.92,2.82-21.05,4.29-42.18,2.98-63.42-.45-7.29-1.37-14.54-2.09-21.81-.05-.48-.2-.95-.47-2.19-9.36,18.83-25.97,31.11-36.53,48.64-4.4-10.76-7.18-21.36-8.58-32.24-2.13-16.46-1.47-32.78,4.27-48.58,4.64-12.75,11.95-23.76,21.96-33.03-7.21,14.81-14.14,29.7-17.2,46.04-3.08,16.39-2.23,32.6,2.07,49.27,11.53-13.06,23.75-24.93,29.61-41.53,5.76-16.32,4.92-33.26,4.99-50.14l.97-.18c1.48,5.04,2.95,10.09,4.37,14.93,1.48-4.78,3.02-9.77,4.56-14.76l1.05-.03c-3.11,32.64,3.85,62.49,24.73,88.99,2.69-7.71,5.83-15.3,7.92-23.18,1.61-6.08,1.95-12.51,2.7-18.8,.14-1.15-.13-2.68-.81-3.56-6.05-7.73-10.76-16.19-14.33-25.32-.21-.54-.74-.95-1.12-1.42,.11-.42,.21-.83,.32-1.25Zm9.66-89.49c2.61-4.61,5.22-9.22,7.88-13.92-4.3,2.42-8.63,4.86-13.08,7.37,1.64,2.27,3.19,4.4,4.75,6.52,.05,.07,.36-.04,.55-.06,.75,2.13,1.5,4.27,2.31,6.56,4.26-1.74,8.03-3.36,11.86-4.82,10.34-3.94,20.74-7.75,31.06-11.75,3.3-1.28,6.95-2.39,9.54-4.62,6.32-5.43,12.42-11.2,18.02-17.36,4.27-4.7,7.63-10.22,11.4-15.37-5.16,.37-9.78,1.38-14.41,2.33-14.63,2.98-28.65,7.58-40.73,16.64-10.03,7.52-19.02,16.17-26.35,26.45-.63,.89-1.84,1.36-2.78,2.03Zm-80.38-1.4c.88-.88,1.89-1.67,2.61-2.66,11.4-15.59,31.67-22.45,50.23-17.05,8.45,2.46,15.46,7.17,21.54,13.58,26.04-20.17,45.96-44.1,50.59-77.91-31.72,12.11-51.59,35.09-61.29,67.44l-1.51-.76c1.5-7.39,3-14.79,4.42-21.77-3.53,5.6-7.28,11.55-11.03,17.49,11.1-28.9,18.9-57.93,7.68-89.27-4.11,4.95-7.89,9.62-11.8,14.18-2.33,2.71-3,5.16-1.16,8.68,1.9,3.63,2.75,7.8,4.12,11.9,1.5-3.21,2.9-6.2,4.57-9.78,2.38,16.65-5.51,55.33-10.42,61.11,.3-15.91,1.4-31.68-1.92-47.34-3.39-15.96-13.47-28.54-20.69-42.81-16.76,29.2-15.51,58.76-2.1,88.7l-.99,.16c-3.45-7-6.9-14-10.55-21.41,1.08,5.3,2.32,10.11,2.97,14.99,.65,4.85,.72,9.77,1.05,14.67l-.86,.15c-2.79-16.15-5.61-32.22-14.9-46.3-9.45-14.32-23.61-22.76-37.87-31.62-2.62,11.09-2.95,22.17-1.03,33.19,3.43,19.65,13.22,35.72,28.4,48.59,3.55,3.01,7.03,6.12,10.55,9.18l-.35,.52c-1.81-1-3.63-2-5.44-3,.64,1.3,1.58,2.15,2.36,3.14,1.05,1.32,1.97,2.74,2.95,4.12-.71-.11-1.48-.08-2.11-.36-15.9-7.01-30.19-16.3-41.21-29.97-3.43-4.26-6.25-9-9.36-13.53l.9-.71c4.62,3.01,9.24,6.02,13.9,9.05-1.63-3.82-3.54-7.48-4.74-11.37-1.03-3.33-2.79-5.01-6.23-5.48-2.16-.3-4.24-1.25-6.3-2.05-4.63-1.81-9.23-3.72-14.46-5.83,6.77,21.37,17.47,38.74,38.13,48.45,8.64,4.06,16.3,9.57,22.86,17.95-1.87-.89-2.87-1.39-3.9-1.85-7.52-3.34-14.9-7.03-22.59-9.95-19.72-7.48-40.34-5.28-60.97-5.09,9.99,10,21.15,18,34.18,23.26,.83,.34,1.89,.31,2.81,.19,8.48-1.1,16.97-.96,25.29,.87,6.73,1.48,13.3,3.74,19.94,5.65l-.26,.81c-3.95-.36-7.9-.73-11.84-1.09-13.19-1.21-26.18-.35-39.07,2.99-15.46,4.01-27.24,15.09-41.99,20.95,11.75,9.74,24.78,15.09,39.79,15.16,.95,0,2.07-.49,2.85-1.09,16.44-12.91,35.23-17.91,55.87-16.75,.5,.03,.98,.22,1.47,.34-1.33,.85-2.63,1.24-3.95,1.53-26.15,5.69-48.84,17.03-64.96,39.34-2.91,4.03-6.49,7.58-9.9,11.53,14.52,2.45,28.54,2.02,42.09-3.57,16.84-6.95,29.13-19.28,39.85-33.56,2.74-3.66,4.43-6.9,.83-10.82-.13-.14-.11-.41-.19-.6-5.87-14.45-4.92-28.51,2.35-42.23,.37-.7,.54-1.52,.8-2.29Z"/><path d="M482.22,413.98c.47,.75,.95,1.51,1.57,2.49-31.38,4.03-55.25,17.82-66.45,49.36-.34-2.11-.78-3.97-.92-5.85-1.38-18.59,1.02-36.58,9.25-53.47,7.26-14.9,17.91-26.21,34.55-30.47,13.68-3.5,27.12-1.67,40.28,2.71,8.61,2.87,16.96,6.59,25.67,9.06,5.15,1.46,10.77,1.24,16.27,1.78-18.51,11.03-36.72,23.68-60.22,24.39Zm9.08-25.17c-14.69-.36-28.83,1.72-41.71,9.53-14.01,8.49-24.52,26.59-25.29,33.66,14.25-30.44,33.46-40.77,66.99-43.19Z"/><path d="M284.11,414.77c9.76,3.22,18.78,.22,27.81-2.39,9.26-2.67,18.51-5.33,28.27-5.3,14.1,.05,25.09,5.76,32.69,17.83,6.89,10.95,11.41,27.49,10.83,41.31-8.93-16.26-23.95-20.23-40.39-22l.38-2.24c-.24-.12-.42-.29-.6-.29-16.64,.18-30.09-8.28-43.61-16.35-5.33-3.18-10.27-7.03-15.38-10.58Zm46.92,4.3c6.01,1.48,11.39,2.3,16.39,4.17,4.9,1.83,9.72,4.26,13.98,7.27,4.23,2.99,7.72,7.02,11.53,10.6-9.76-14.79-23.92-21.26-41.9-22.04Z"/><path d="M426.48,258c30.28,21.57,62.33,55.05,65.9,69.05-4.81-4.06-10.07-7.69-14.34-12.25-13.84-14.75-27.33-29.83-40.93-44.8-3.59-3.95-7.09-7.99-10.63-11.99Z"/><path d="M427.05,285.8c-.11,.42-.21,.83-.32,1.25,4.74,13.11,7.93,26.52,7.34,40.58-.14,3.3-.79,6.57-1.21,9.86l-.97,.04c-5.28-24.23-10.55-48.46-15.83-72.68l.35-.26c1.86,3.65,3.81,7.26,5.57,10.96,1.22,2.57,2.14,5.28,3.31,7.88,.4,.88,1.17,1.59,1.77,2.38Z"/><path d="M453.39,220.76c23.67-8.93,48.26-12.62,73.43-12.94,.09,.27,.18,.54,.27,.82-.99,.36-1.97,.75-2.98,1.08-12.37,3.98-25.22,5.31-38.01,6.95-10.9,1.4-21.81,2.73-32.72,4.09Z"/><path d="M369.52,339.9c1.82-24.55,8.09-48.15,15.03-71.6-1.54,24.61-5.71,48.66-15.03,71.6Z"/><path d="M510.23,222.11c-21.47,7.09-43.41,6.43-65.53,2.8,10.94,0,21.83,.36,32.69-.1,10.97-.47,21.9-1.76,32.84-2.7Z"/><path d="M481.07,256c13.7,3.61,27.4,7.22,41.1,10.83-14.75,.32-28.43-3.34-41.1-10.83Z"/><path d="M444.28,242.07c12.65,6.89,25.3,13.78,37.95,20.67-14.29-3.87-26.85-10.97-37.95-20.67Z"/><path d="M453.3,216.52c12.64-7.23,27-9.73,42.6-10-14.8,3.48-28.96,6.8-42.6,10Z"/><path d="M441.9,236.83c15.26-.58,29.94,2.16,45.09,7.64-15.63-2.65-30.36-5.15-45.09-7.64Z"/><path d="M438.9,279.52c8.25,10.59,16.5,21.17,24.75,31.76-10.74-8.61-18.73-19.4-24.75-31.76Z"/><path d="M453.85,272.97c11.62,8.61,20.99,18.2,27.89,31.19-9.5-10.63-18.42-20.6-27.89-31.19Z"/><path d="M333.77,291.64c7.46-7.87,14.92-15.73,22.38-23.6-5.35,9.84-12.87,17.65-22.38,23.6Z"/><path d="M411.94,267.81c.64,7.55,1.28,15.1,1.92,22.65l-1.08,.1c-.71-7.52-1.42-15.04-2.12-22.56l1.29-.18Z"/><path d="M392.89,269.28l-1.4,17.11-.91-.07c.34-5.69,.69-11.37,1.03-17.06l1.28,.02Z"/><path d="M325.72,120.74c14.75,20.05,27.31,41.48,38.92,64.59-13.56-12.43-31.03-41.5-38.92-64.59Z"/><path d="M382.45,102.23c6.83,20.9,8.77,42.77,12.61,64.26-6.75-20.92-13.95-41.74-12.61-64.26Z"/><path d="M430.98,175.44c4.35-10.87,28.17-40.73,37.87-47.7-1.62,7.37-19.36,29.78-37.87,47.7Z"/><path d="M379.96,126.1c2.72,15.03,5.55,30.69,8.32,46-5.34-3.8-10.8-36.18-8.32-46Z"/><path d="M401.44,162.42c-1.86-11.88-3.58-22.89-5.3-33.9,4.45,10.57,6.54,21.52,5.3,33.9Z"/><path d="M349.99,148.71c-4.97-8.18-9.7-15.97-14.47-23.82,4.88,3.22,13.09,16.57,14.47,23.82Z"/><path d="M444.79,169.52l-14.81,16.16-1.05-.98c5.02-5.29,10.04-10.57,15.06-15.86l.79,.68Z"/><path d="M359.08,160.51c2.63,6.01,5.26,12.02,7.9,18.02l-1.02,.44c-2.58-5.98-5.15-11.96-7.73-17.94l.85-.52Z"/><path d="M424.95,178.67l7.83-15.98,.85,.41c-2.55,5.37-5.11,10.74-7.66,16.11-.34-.18-.68-.36-1.02-.53Z"/><path d="M359.15,189.18c-3.08-3.96-6.16-7.93-9.25-11.89l.79-.62c3.14,3.94,6.28,7.88,9.42,11.82l-.96,.69Z"/><path d="M268.1,238.39c23.08-8.96,47.63-10.61,71.77-14.3-23.24,8.19-46.52,16.16-71.77,14.3Z"/><path d="M350.42,243.04c-18.61,15.1-37.52,29.81-61.24,36.43,18.1-15.96,40.03-25.55,61.24-36.43Z"/><path d="M280.12,190.89c12.07,2.82,23.23,5.53,34.43,8.01,11.1,2.46,22.24,4.69,33.3,7.3-23.24-.86-45.83-4.63-67.74-15.31Z"/><path d="M346.74,220c-14.79,1.59-29.59,3.19-44.38,4.78,5.1-3.39,34.88-6.58,44.38-4.78Z"/><path d="M494.44,161.41c-14.49,14.69-32.33,24.51-49.88,34.77,15.62-13.04,30.77-26.74,49.88-34.77Z"/></svg>